<?xml version="1.0" encoding="UTF-8"?>
<svg xmlns="http://www.w3.org/2000/svg" viewBox="0 0 788.88 364.5">
  <defs>
    <style>
      .cls-1 {
        font-family: ExpresswayRg-Regular, Expressway;
        font-size: 102px;
      }

      .cls-1, .cls-2 {
        fill: #231f20;
      }

      .cls-2, .cls-3, .cls-4 {
        stroke: #231f20;
        stroke-miterlimit: 10;
        stroke-width: 9px;
      }

      .cls-5 {
        letter-spacing: -.01em;
      }

      .cls-3, .cls-6 {
        fill: #fffef6;
      }

      .cls-7 {
        letter-spacing: 0em;
      }

      .cls-6 {
        stroke-width: 0px;
      }

      .cls-4 {
        fill: none;
      }
    </style>
  </defs>
  <g id="Layer_4" data-name="Layer 4">
    <g id="Layer_2" data-name="Layer 2">
      <rect class="cls-3" x="9.85" y="108.26" width="619.18" height="170.55" rx="23.92" ry="23.92"/>
      <path class="cls-6" d="m319.58,65.7c-12.36,9.99-28.59,21.08-48.99,30.29-56.5,25.49-107.49,19.54-107.49,20.68,0,2.74,293.9,1.39,293.87-3.06,0-1.73-44.34,2.98-94.21-20.43-17.92-8.41-32.22-18.41-43.18-27.48Z"/>
    </g>
    <path class="cls-4" d="m322.53,63.56c0,24.71,72.51,44.7,162.13,44.7"/>
    <circle class="cls-2" cx="319.44" cy="46.06" r="16.33"/>
    <g id="Layer_3" data-name="Layer 3">
      <path class="cls-4" d="m318.44,62.03c-8.8,27.25-66.2,48.39-136.09,46.23"/>
    </g>
    <g id="Layer_6" data-name="Layer 6">
      <path class="cls-2" d="m192.46,278.81c13.08,2.15,29.31,7.26,38.81,20.67,9.41,13.29,3.88,22.96,12.26,33.02,7.28,8.75,15.03,4.91,70.81,7.83,18.13.95,36.31-.75,54.47-.68,7.42.03,12.3.1,17.36-3.06,12.88-8.04,7.76-25.01,17.36-38.81,14.54-20.89,50.5-16.85,50.38-18.96-.19-3.39-103.54-.67-134.81,0-52.96,1.14-96.68.65-126.64,0Z"/>
      <path class="cls-6" d="m191.76,261.75c13.08,2.15,29.31,7.26,38.81,20.67,9.41,13.29,3.88,22.96,12.26,33.02,7.28,8.75,15.03,4.91,70.81,7.83,18.13.95,36.31-.75,54.47-.68,7.42.03,12.3.1,17.36-3.06,12.88-8.04,7.76-25.01,17.36-38.81,14.54-20.89,50.5-16.85,50.38-18.96-.19-3.39-103.54-.67-134.81,0-52.96,1.14-96.68.65-126.64,0Z"/>
      <path class="cls-6" d="m192.11,273.66c13.08,2.15,29.31,7.26,38.81,20.67,9.41,13.29,3.88,22.96,12.26,33.02,7.28,8.75,15.03,4.91,70.81,7.83,18.13.95,36.31-.75,54.47-.68,7.42.03,12.3.1,17.36-3.06,12.88-8.04,7.76-25.01,17.36-38.81,14.54-20.89,50.5-16.85,50.38-18.96-.19-3.39-103.54-.67-134.81,0-52.96,1.14-96.68.65-126.64,0Z"/>
    </g>
  </g>
  <g id="Layer_7" data-name="Layer 7">
    <text class="cls-1" transform="translate(45.9 225.41)"><tspan x="0" y="0">Bat</tspan><tspan class="cls-7" x="156.57" y="0">h</tspan><tspan x="215.83" y="0">u</tspan><tspan class="cls-5" x="275.6" y="0">r</tspan><tspan x="317.93" y="0">st St.</tspan></text>
  </g>
</svg>